<?xml version="1.0" standalone="no"?>
<!DOCTYPE svg PUBLIC "-//W3C//DTD SVG 20010904//EN"
 "http://www.w3.org/TR/2001/REC-SVG-20010904/DTD/svg10.dtd">
<svg version="1.0" xmlns="http://www.w3.org/2000/svg"
 width="300.000000pt" height="264.000000pt" viewBox="0 0 300.000000 264.000000"
 preserveAspectRatio="xMidYMid meet">
<metadata>
Created by potrace 1.10, written by Peter Selinger 2001-2011
</metadata>
<g transform="translate(0.000000,264.000000) scale(0.100000,-0.100000)"
fill="#000000" stroke="none">
<path d="M674 2268 c6 -20 35 -212 50 -328 5 -32 1 -37 -42 -67 l-47 -33 -8
38 c-35 153 -78 317 -86 325 -21 21 -30 -3 -16 -43 20 -58 76 -340 69 -351 -3
-6 -1 -15 4 -22 5 -7 12 -32 16 -57 7 -48 21 -78 31 -68 9 9 9 36 1 93 l-7 50
45 32 c24 17 47 29 50 26 3 -4 6 -20 6 -37 0 -39 26 -136 39 -149 23 -23 30 8
16 63 -8 30 -28 150 -44 265 -36 243 -46 285 -68 285 -11 0 -14 -6 -9 -22z"/>
<path d="M2195 2033 c3 -10 24 -99 46 -197 100 -454 179 -716 215 -716 18 0
18 1 -11 82 -32 88 -112 380 -170 622 -25 104 -50 197 -56 208 -12 23 -33 24
-24 1z"/>
<path d="M1690 1852 c0 -60 3 -72 16 -72 14 0 16 10 12 60 -7 93 -28 102 -28
12z"/>
<path d="M841 1878 c1 -56 24 -167 36 -179 24 -24 26 20 7 114 -19 91 -45 130
-43 65z"/>
<path d="M1250 1854 c0 -13 12 -15 80 -12 53 2 80 -1 80 -8 0 -13 -58 -302
-66 -326 -4 -13 -19 -18 -61 -20 -81 -4 -84 -28 -5 -28 39 0 62 -4 65 -12 3
-10 7 -10 19 0 10 8 31 10 63 6 43 -6 47 -5 43 12 -2 15 -13 20 -49 22 l-46 3
13 48 c7 27 23 107 36 179 l23 130 57 -6 c49 -4 58 -2 58 12 0 14 -18 16 -155
16 -134 0 -155 -2 -155 -16z"/>
<path d="M995 1813 c-4 -21 -10 -59 -15 -85 -6 -26 -6 -57 -1 -70 l8 -22 13
23 c17 32 27 191 12 191 -6 0 -14 -17 -17 -37z"/>
<path d="M1756 1663 c-14 -67 -35 -246 -30 -254 10 -17 22 1 35 53 6 29 21 73
32 98 20 47 22 46 41 -12 8 -27 23 -22 76 28 l50 46 10 -26 c5 -15 10 -39 10
-54 0 -42 11 -72 26 -72 26 0 7 147 -22 171 -20 16 -69 -5 -95 -42 -23 -33
-39 -37 -39 -11 0 10 -6 27 -14 37 -12 17 -16 18 -31 5 -9 -8 -21 -23 -26 -35
-7 -13 -8 -1 -4 38 5 58 -9 80 -19 30z"/>
<path d="M549 1376 c-74 -26 -136 -85 -171 -161 -17 -39 -23 -68 -23 -132 0
-76 2 -85 27 -109 18 -18 32 -25 44 -20 16 6 15 10 -11 31 -28 22 -30 27 -30
97 2 188 150 314 315 268 83 -23 140 -89 140 -163 0 -65 -26 -113 -112 -202
-71 -76 -88 -87 -88 -60 0 18 -77 255 -90 275 -7 11 -12 12 -20 4 -9 -9 -8
-19 3 -40 13 -26 77 -241 90 -304 3 -14 19 -82 36 -151 17 -69 39 -176 50
-238 19 -114 34 -151 47 -117 8 22 -19 191 -54 334 l-27 110 40 -23 c22 -13
79 -46 128 -73 48 -28 151 -95 230 -150 136 -95 187 -124 187 -104 0 4 -10 18
-22 29 -42 38 -273 195 -368 250 -52 31 -119 69 -149 87 -29 17 -55 36 -58 42
-2 6 32 45 75 88 124 120 162 211 128 301 -42 110 -198 174 -317 131z"/>
<path d="M2120 1228 c0 -50 27 -173 64 -303 30 -104 30 -105 11 -105 -24 0
-87 63 -186 186 -124 153 -150 146 -114 -29 27 -136 68 -208 99 -177 7 7 5 10
-6 10 -11 0 -23 19 -36 53 -21 56 -47 187 -41 205 2 7 33 -25 69 -71 87 -110
149 -176 182 -193 34 -18 43 -18 62 1 18 18 16 37 -21 175 -14 52 -33 137 -42
189 -18 101 -41 135 -41 59z"/>
<path d="M1434 1158 c11 -39 34 -229 41 -343 8 -124 15 -145 50 -145 34 0 135
51 135 68 0 16 -24 10 -83 -20 -22 -11 -45 -17 -52 -14 -9 3 -15 37 -20 103
-10 143 -32 314 -44 346 -13 33 -36 37 -27 5z"/>
<path d="M1720 1158 c0 -39 -33 -183 -44 -193 -6 -5 -11 -23 -12 -40 0 -16 -4
-43 -9 -59 -13 -47 16 -27 33 22 9 29 19 42 32 42 9 0 31 3 47 6 28 5 31 3 48
-43 34 -91 104 -233 114 -233 18 0 13 16 -37 133 -27 62 -72 172 -101 245 -53
133 -71 163 -71 120z m43 -131 l25 -67 -40 0 c-40 0 -40 0 -34 33 4 17 9 49
13 70 3 21 7 36 9 35 1 -2 14 -34 27 -71z"/>
<path d="M1283 1056 c-21 -19 -28 -33 -28 -64 0 -38 9 -54 75 -142 34 -46 34
-68 1 -99 -32 -30 -31 -41 5 -41 30 0 54 36 54 81 0 28 -12 52 -50 104 -58 78
-64 113 -24 144 14 11 23 25 19 31 -9 15 -21 12 -52 -14z"/>
<path d="M1170 923 c0 -11 9 -53 19 -94 34 -134 37 -189 10 -189 -15 0 -83
112 -115 187 -33 81 -32 79 -44 67 -7 -7 5 -42 35 -103 78 -160 118 -204 153
-169 19 19 13 144 -11 232 -20 74 -47 113 -47 69z"/>
<path d="M2503 915 c-57 -40 -72 -202 -22 -249 13 -13 33 -27 45 -30 30 -9 83
31 112 84 43 81 15 178 -56 195 -15 3 -34 8 -42 10 -9 3 -25 -2 -37 -10z m58
-25 c33 0 69 -44 69 -86 0 -45 -25 -98 -58 -124 -32 -26 -38 -25 -67 5 -21 20
-25 34 -25 79 0 67 26 140 47 132 8 -3 23 -6 34 -6z"/>
</g>
</svg>
